# Blender v2.93.4 OBJ File: 'motor_tunado.blend'
# www.blender.org
mtllib OB_1.mtl
o Cube.018_Cube.019
v -0.023638 -0.055966 0.082229
v 0.018397 -0.055966 0.082229
v -0.023638 -0.033790 0.082229
v 0.018397 -0.033790 0.082229
v 0.017770 -0.034417 0.082229
v 0.017770 -0.055339 0.082229
v -0.023011 -0.055339 0.082229
v -0.023011 -0.034417 0.082229
v 0.016730 -0.034950 0.082913
v 0.016730 -0.054805 0.082913
v -0.021971 -0.054805 0.082913
v -0.021971 -0.034950 0.082913
v 0.016730 -0.034950 0.082913
v 0.016730 -0.054805 0.082913
v -0.021971 -0.054805 0.082913
v -0.021971 -0.034950 0.082913
v 0.015573 -0.035544 0.083295
v 0.015573 -0.054212 0.083295
v -0.020814 -0.054212 0.083295
v -0.020814 -0.035544 0.083295
v 0.014012 -0.036345 0.083567
v 0.014012 -0.053411 0.083567
v -0.019253 -0.053411 0.083567
v -0.019253 -0.036345 0.083567
v 0.012810 -0.036961 0.084117
v 0.012810 -0.052794 0.084117
v -0.018051 -0.052794 0.084117
v -0.018051 -0.036961 0.084117
v 0.011473 -0.037647 0.084496
v 0.011473 -0.052109 0.084496
v -0.016714 -0.052109 0.084496
v -0.016714 -0.037647 0.084496
v 0.009862 -0.038843 0.085006
v 0.009862 -0.050913 0.085006
v -0.015103 -0.050913 0.085006
v -0.015103 -0.038843 0.085006
v 0.010618 -0.038086 0.085006
v 0.010618 -0.051670 0.085006
v -0.015859 -0.051670 0.085006
v -0.015859 -0.038086 0.085006
v 0.009862 -0.038843 0.084663
v 0.009862 -0.050913 0.084663
v -0.015103 -0.050913 0.084663
v -0.015103 -0.038843 0.084663
v -0.023638 -0.055966 0.081479
v 0.018397 -0.055966 0.081479
v -0.023638 -0.033790 0.081479
v 0.018397 -0.033790 0.081479
v 0.017692 -0.034484 0.081486
v 0.017692 -0.055272 0.081486
v -0.022933 -0.055272 0.081486
v -0.022933 -0.034484 0.081486
v 0.016596 -0.035577 0.082524
v 0.016501 -0.055062 0.082247
v -0.021742 -0.055062 0.082247
v -0.021837 -0.035577 0.082524
v 0.016661 -0.035633 0.082611
v 0.016649 -0.055463 0.082562
v -0.021890 -0.055463 0.082562
v -0.021902 -0.035633 0.082611
v 0.015469 -0.035742 0.082579
v 0.015469 -0.054014 0.082579
v -0.020710 -0.054014 0.082579
v -0.020710 -0.035742 0.082579
v 0.013912 -0.036497 0.082839
v 0.013912 -0.053259 0.082839
v -0.019153 -0.053259 0.082839
v -0.019153 -0.036497 0.082839
v 0.012661 -0.037217 0.083428
v 0.012661 -0.052539 0.083428
v -0.017902 -0.052539 0.083428
v -0.017902 -0.037217 0.083428
v 0.011331 -0.037867 0.083793
v 0.011331 -0.051889 0.083793
v -0.016572 -0.051889 0.083793
v -0.016572 -0.037867 0.083793
v 0.010088 -0.038616 0.084328
v 0.010088 -0.051139 0.084328
v -0.015329 -0.051139 0.084328
v -0.015329 -0.038616 0.084328
v 0.010475 -0.038350 0.084318
v 0.010475 -0.051406 0.084318
v -0.015716 -0.051406 0.084318
v -0.015716 -0.038350 0.084318
v 0.010295 -0.038410 0.084230
v 0.010295 -0.051346 0.084230
v -0.015536 -0.051346 0.084230
v -0.015536 -0.038410 0.084230
vt 0.070753 0.297141
vt 0.070753 0.809681
vt 0.040260 0.796615
vt 0.040260 0.310207
vt 0.387939 0.825047
vt 0.387939 0.312510
vt 0.403308 0.297141
vt 0.403308 0.840416
vt 0.836974 0.946707
vt 0.836937 0.016993
vt 0.853451 0.000478
vt 0.853451 0.960972
vt 0.371612 0.825046
vt 0.371613 0.312510
vt 0.386982 0.297141
vt 0.386982 0.840416
vt 0.819503 0.946707
vt 0.819466 0.016993
vt 0.835981 0.000478
vt 0.835981 0.960972
vt 0.870366 0.000478
vt 0.870366 0.914865
vt 0.854408 0.914865
vt 0.854408 0.000478
vt 0.102202 0.297141
vt 0.102202 0.809681
vt 0.071709 0.796615
vt 0.071709 0.310206
vt 0.656479 0.000478
vt 0.656479 0.999522
vt 0.635221 0.974054
vt 0.635221 0.025945
vt 0.634264 0.000478
vt 0.634264 0.999493
vt 0.613006 0.974026
vt 0.613004 0.025948
vt 0.133006 0.297141
vt 0.133006 0.783548
vt 0.103159 0.769005
vt 0.103158 0.311684
vt 0.123377 0.946730
vt 0.592559 0.946730
vt 0.592559 0.954918
vt 0.123377 0.954918
vt 0.464090 0.766252
vt 0.464090 0.297141
vt 0.472278 0.297141
vt 0.472278 0.766252
vt 0.871322 0.914865
vt 0.871322 0.000478
vt 0.887281 0.000478
vt 0.887281 0.914865
vt 0.679115 0.891887
vt 0.679115 0.000478
vt 0.699838 0.038728
vt 0.699838 0.853637
vt 0.163810 0.297141
vt 0.163810 0.783548
vt 0.133963 0.769005
vt 0.133962 0.311684
vt 0.776107 0.000478
vt 0.776107 0.948599
vt 0.758820 0.920252
vt 0.758821 0.028823
vt 0.757863 0.000478
vt 0.757863 0.948600
vt 0.740576 0.920253
vt 0.740578 0.028823
vt 0.230473 0.297141
vt 0.230473 0.715218
vt 0.198098 0.700118
vt 0.198098 0.312241
vt 0.657436 0.891887
vt 0.657436 0.000478
vt 0.678159 0.038728
vt 0.678159 0.853637
vt 0.000478 0.754464
vt 0.000478 0.297141
vt 0.039303 0.316764
vt 0.039303 0.734841
vt 0.700794 0.457802
vt 0.700794 0.000478
vt 0.739620 0.020102
vt 0.739619 0.438178
vt 0.300476 0.297141
vt 0.300476 0.685016
vt 0.266431 0.668213
vt 0.266431 0.313944
vt 0.164767 0.715218
vt 0.164766 0.297141
vt 0.197141 0.312241
vt 0.197141 0.700118
vt 0.818510 0.000478
vt 0.818510 0.815385
vt 0.798265 0.785952
vt 0.798265 0.029912
vt 0.797308 0.000478
vt 0.797308 0.815384
vt 0.777064 0.785951
vt 0.777063 0.029912
vt 0.945983 0.691011
vt 0.945983 0.000478
vt 0.962458 0.021430
vt 0.962458 0.670058
vt 0.888237 0.756512
vt 0.888238 0.000478
vt 0.907438 0.033231
vt 0.907438 0.723757
vt 0.927596 0.000478
vt 0.927596 0.756512
vt 0.908395 0.723759
vt 0.908394 0.033233
vt 0.265475 0.297141
vt 0.265474 0.685016
vt 0.231429 0.668212
vt 0.231429 0.313944
vt 0.490987 0.297141
vt 0.490987 0.592845
vt 0.482589 0.592845
vt 0.482589 0.297141
vt 0.945027 0.000478
vt 0.945027 0.691026
vt 0.928552 0.670074
vt 0.928553 0.021429
vt 0.345311 0.297141
vt 0.345310 0.651409
vt 0.320921 0.640660
vt 0.320921 0.307890
vt 0.370656 0.297141
vt 0.370656 0.651409
vt 0.346267 0.640660
vt 0.346267 0.307889
vt 0.423753 0.611379
vt 0.423753 0.315673
vt 0.442285 0.297141
vt 0.442285 0.629911
vt 0.301432 0.927241
vt 0.301432 0.315673
vt 0.319965 0.297141
vt 0.319965 0.945773
vt 0.404264 0.611378
vt 0.404264 0.315673
vt 0.422797 0.297141
vt 0.422797 0.629911
vt 0.612048 0.315673
vt 0.612048 0.927241
vt 0.593516 0.945773
vt 0.593516 0.297141
vt 0.612048 0.000478
vt 0.612048 0.296184
vt 0.000478 0.296184
vt 0.000478 0.000478
vt 0.473234 0.592843
vt 0.473234 0.297141
vt 0.481632 0.297141
vt 0.481632 0.592843
vt 0.443242 0.839625
vt 0.443242 0.297172
vt 0.452710 0.297141
vt 0.452710 0.839594
vt 0.463134 0.297141
vt 0.463134 0.839594
vt 0.453666 0.839625
vt 0.453666 0.297172
vt 0.070753 0.297141
vt 0.040260 0.310207
vt 0.040260 0.796615
vt 0.070753 0.809681
vt 0.387939 0.825047
vt 0.403308 0.840416
vt 0.403308 0.297141
vt 0.387939 0.312510
vt 0.836974 0.946707
vt 0.853451 0.960972
vt 0.853451 0.000478
vt 0.836937 0.016993
vt 0.371612 0.825046
vt 0.386982 0.840416
vt 0.386982 0.297141
vt 0.371613 0.312510
vt 0.819503 0.946707
vt 0.835981 0.960972
vt 0.835981 0.000478
vt 0.819466 0.016993
vt 0.870366 0.000478
vt 0.854408 0.000478
vt 0.854408 0.914865
vt 0.870366 0.914865
vt 0.102202 0.297141
vt 0.071709 0.310206
vt 0.071709 0.796615
vt 0.102202 0.809681
vt 0.656479 0.000478
vt 0.635221 0.025945
vt 0.635221 0.974054
vt 0.656479 0.999522
vt 0.634264 0.000478
vt 0.613004 0.025948
vt 0.613006 0.974026
vt 0.634264 0.999493
vt 0.133006 0.297141
vt 0.103158 0.311684
vt 0.103159 0.769005
vt 0.133006 0.783548
vt 0.123377 0.946730
vt 0.123377 0.954918
vt 0.592559 0.954918
vt 0.592559 0.946730
vt 0.464090 0.766252
vt 0.472278 0.766252
vt 0.472278 0.297141
vt 0.464090 0.297141
vt 0.871322 0.914865
vt 0.887281 0.914865
vt 0.887281 0.000478
vt 0.871322 0.000478
vt 0.679115 0.891887
vt 0.699838 0.853637
vt 0.699838 0.038728
vt 0.679115 0.000478
vt 0.163810 0.297141
vt 0.133962 0.311684
vt 0.133963 0.769005
vt 0.163810 0.783548
vt 0.776107 0.000478
vt 0.758821 0.028823
vt 0.758820 0.920252
vt 0.776107 0.948599
vt 0.757863 0.000478
vt 0.740578 0.028823
vt 0.740576 0.920253
vt 0.757863 0.948600
vt 0.230473 0.297141
vt 0.198098 0.312241
vt 0.198098 0.700118
vt 0.230473 0.715218
vt 0.657436 0.891887
vt 0.678159 0.853637
vt 0.678159 0.038728
vt 0.657436 0.000478
vt 0.000478 0.754464
vt 0.039303 0.734841
vt 0.039303 0.316764
vt 0.000478 0.297141
vt 0.700794 0.457802
vt 0.739619 0.438178
vt 0.739620 0.020102
vt 0.700794 0.000478
vt 0.300476 0.297141
vt 0.266431 0.313944
vt 0.266431 0.668213
vt 0.300476 0.685016
vt 0.164767 0.715218
vt 0.197141 0.700118
vt 0.197141 0.312241
vt 0.164766 0.297141
vt 0.818510 0.000478
vt 0.798265 0.029912
vt 0.798265 0.785952
vt 0.818510 0.815385
vt 0.797308 0.000478
vt 0.777063 0.029912
vt 0.777064 0.785951
vt 0.797308 0.815384
vt 0.945983 0.691011
vt 0.962458 0.670058
vt 0.962458 0.021430
vt 0.945983 0.000478
vt 0.888237 0.756512
vt 0.907438 0.723757
vt 0.907438 0.033231
vt 0.888238 0.000478
vt 0.927596 0.000478
vt 0.908394 0.033233
vt 0.908395 0.723759
vt 0.927596 0.756512
vt 0.265475 0.297141
vt 0.231429 0.313944
vt 0.231429 0.668212
vt 0.265474 0.685016
vt 0.490987 0.297141
vt 0.482589 0.297141
vt 0.482589 0.592845
vt 0.490987 0.592845
vt 0.945027 0.000478
vt 0.928553 0.021429
vt 0.928552 0.670074
vt 0.945027 0.691026
vt 0.345311 0.297141
vt 0.320921 0.307890
vt 0.320921 0.640660
vt 0.345310 0.651409
vt 0.370656 0.297141
vt 0.346267 0.307889
vt 0.346267 0.640660
vt 0.370656 0.651409
vt 0.423753 0.611379
vt 0.442285 0.629911
vt 0.442285 0.297141
vt 0.423753 0.315673
vt 0.301432 0.927241
vt 0.319965 0.945773
vt 0.319965 0.297141
vt 0.301432 0.315673
vt 0.404264 0.611378
vt 0.422797 0.629911
vt 0.422797 0.297141
vt 0.404264 0.315673
vt 0.612048 0.315673
vt 0.593516 0.297141
vt 0.593516 0.945773
vt 0.612048 0.927241
vt 0.612048 0.000478
vt 0.000478 0.000478
vt 0.000478 0.296184
vt 0.612048 0.296184
vt 0.473234 0.592843
vt 0.481632 0.592843
vt 0.481632 0.297141
vt 0.473234 0.297141
vt 0.443242 0.839625
vt 0.452710 0.839594
vt 0.452710 0.297141
vt 0.443242 0.297172
vt 0.463134 0.297141
vt 0.453666 0.297172
vt 0.453666 0.839625
vt 0.463134 0.839594
vn -0.5499 0.0000 0.8352
vn -0.0000 0.0000 1.0000
vn 0.5499 0.0000 0.8352
vn 0.0000 0.7888 0.6146
vn 0.0000 -0.7888 0.6146
vn -0.3131 0.0000 0.9497
vn 0.0000 0.3214 0.9469
vn 0.3131 0.0000 0.9497
vn 0.0000 0.5406 0.8413
vn 0.0000 -0.5406 0.8413
vn -0.4165 0.0000 0.9091
vn 0.0000 -0.3214 0.9469
vn -0.1715 0.0000 0.9852
vn 0.1715 0.0000 0.9852
vn 0.2729 0.0000 0.9621
vn 0.4165 0.0000 0.9091
vn 0.0000 0.6661 0.7459
vn 0.0000 -0.6661 0.7459
vn 0.0000 0.7578 0.6525
vn 0.0000 0.4838 0.8752
vn 0.0000 -0.4838 0.8752
vn -0.2729 0.0000 0.9621
vn 1.0000 0.0000 0.0000
vn 0.0000 -0.7578 0.6525
vn -0.5119 0.0000 0.8591
vn 0.5119 0.0000 0.8591
vn -1.0000 0.0000 0.0000
vn 0.0000 -1.0000 0.0000
vn 0.0000 1.0000 0.0000
vn 0.6198 0.0069 -0.7847
vn -0.0100 0.0000 -1.0000
vn 0.0000 0.0101 -0.9999
vn 0.0100 0.0000 -1.0000
vn 0.0000 -0.0101 -0.9999
vn 0.0000 0.6172 0.7868
vn -0.6198 0.0069 -0.7847
vn 0.0000 -0.6885 -0.7253
vn 0.0000 0.9638 -0.2666
vn -0.0071 0.0013 -1.0000
vn 0.8839 -0.0015 0.4676
vn -0.8839 -0.0015 0.4676
vn 0.0000 -0.8408 -0.5414
vn 0.0000 -0.3257 -0.9455
vn 0.0071 0.0013 -1.0000
vn 0.0000 0.2849 -0.9586
vn 0.0000 0.0118 -0.9999
vn 0.4259 0.0000 -0.9048
vn 0.0000 0.3257 -0.9455
vn 0.1648 0.0000 -0.9863
vn -0.1648 0.0000 -0.9863
vn -0.2650 0.0000 -0.9643
vn -0.4259 0.0000 -0.9048
vn 0.0000 -0.6332 -0.7740
vn 0.0000 0.6332 -0.7740
vn 0.0000 -0.7360 -0.6769
vn 0.0000 -0.4901 -0.8717
vn 0.0000 0.4901 -0.8717
vn 0.2650 0.0000 -0.9643
vn -0.4261 0.0000 0.9047
vn 0.0000 0.7360 -0.6769
vn 0.5229 0.0000 -0.8524
vn -0.5229 0.0000 -0.8524
vn -0.0234 0.0000 -0.9997
vn 0.0000 0.0339 -0.9994
vn 0.0234 0.0000 -0.9997
vn 0.0000 -0.0339 -0.9994
vn 0.0000 0.0000 -1.0000
vn 0.4261 0.0000 0.9047
vn 0.0000 0.4261 0.9047
vn 0.0000 -0.4261 0.9047
usemtl tampa_principal
s off
f 8/1/1 7/2/1 11/3/1 12/4/1
f 5/5/2 6/6/2 2/7/2 4/8/2
f 6/9/2 7/10/2 1/11/2 2/12/2
f 7/13/2 8/14/2 3/15/2 1/16/2
f 8/17/2 5/18/2 4/19/2 3/20/2
f 11/21/2 10/22/2 14/23/2 15/24/2
f 6/25/3 5/26/3 9/27/3 10/28/3
f 5/29/4 8/30/4 12/31/4 9/32/4
f 7/33/5 6/34/5 10/35/5 11/36/5
f 16/37/6 15/38/6 19/39/6 20/40/6
f 12/41/2 11/42/2 15/43/2 16/44/2
f 10/45/2 9/46/2 13/47/2 14/48/2
f 9/49/2 12/50/2 16/51/2 13/52/2
f 17/53/7 20/54/7 24/55/7 21/56/7
f 14/57/8 13/58/8 17/59/8 18/60/8
f 13/61/9 16/62/9 20/63/9 17/64/9
f 15/65/10 14/66/10 18/67/10 19/68/10
f 24/69/11 23/70/11 27/71/11 28/72/11
f 19/73/12 18/74/12 22/75/12 23/76/12
f 20/77/13 19/78/13 23/79/13 24/80/13
f 18/81/14 17/82/14 21/83/14 22/84/14
f 26/85/15 25/86/15 29/87/15 30/88/15
f 22/89/16 21/90/16 25/91/16 26/92/16
f 21/93/17 24/94/17 28/95/17 25/96/17
f 23/97/18 22/98/18 26/99/18 27/100/18
f 29/101/19 32/102/19 40/103/19 37/104/19
f 25/105/20 28/106/20 32/107/20 29/108/20
f 27/109/21 26/110/21 30/111/21 31/112/21
f 28/113/22 27/114/22 31/115/22 32/116/22
f 36/117/23 35/118/23 43/119/23 44/120/23
f 31/121/24 30/122/24 38/123/24 39/124/24
f 32/125/25 31/126/25 39/127/25 40/128/25
f 30/129/26 29/130/26 37/131/26 38/132/26
f 33/133/2 34/134/2 38/135/2 37/136/2
f 34/137/2 35/138/2 39/139/2 38/140/2
f 35/141/2 36/142/2 40/143/2 39/144/2
f 36/145/2 33/146/2 37/147/2 40/148/2
f 42/149/2 41/150/2 44/151/2 43/152/2
f 34/153/27 33/154/27 41/155/27 42/156/27
f 33/157/28 36/158/28 44/159/28 41/160/28
f 35/161/29 34/162/29 42/163/29 43/164/29
f 52/165/30 56/166/30 55/167/30 51/168/30
f 49/169/31 48/170/31 46/171/31 50/172/31
f 50/173/32 46/174/32 45/175/32 51/176/32
f 51/177/33 45/178/33 47/179/33 52/180/33
f 52/181/34 47/182/34 48/183/34 49/184/34
f 55/185/35 59/186/35 58/187/35 54/188/35
f 50/189/36 54/190/36 53/191/36 49/192/36
f 49/193/37 53/194/37 56/195/37 52/196/37
f 51/197/38 55/198/38 54/199/38 50/200/38
f 60/201/39 64/202/39 63/203/39 59/204/39
f 56/205/40 60/206/40 59/207/40 55/208/40
f 54/209/41 58/210/41 57/211/41 53/212/41
f 53/213/42 57/214/42 60/215/42 56/216/42
f 61/217/43 65/218/43 68/219/43 64/220/43
f 58/221/44 62/222/44 61/223/44 57/224/44
f 57/225/45 61/226/45 64/227/45 60/228/45
f 59/229/46 63/230/46 62/231/46 58/232/46
f 68/233/47 72/234/47 71/235/47 67/236/47
f 63/237/48 67/238/48 66/239/48 62/240/48
f 64/241/49 68/242/49 67/243/49 63/244/49
f 62/245/50 66/246/50 65/247/50 61/248/50
f 70/249/51 74/250/51 73/251/51 69/252/51
f 66/253/52 70/254/52 69/255/52 65/256/52
f 65/257/53 69/258/53 72/259/53 68/260/53
f 67/261/54 71/262/54 70/263/54 66/264/54
f 73/265/55 81/266/55 84/267/55 76/268/55
f 69/269/56 73/270/56 76/271/56 72/272/56
f 71/273/57 75/274/57 74/275/57 70/276/57
f 72/277/58 76/278/58 75/279/58 71/280/58
f 80/281/59 88/282/59 87/283/59 79/284/59
f 75/285/60 83/286/60 82/287/60 74/288/60
f 76/289/61 84/290/61 83/291/61 75/292/61
f 74/293/62 82/294/62 81/295/62 73/296/62
f 77/297/63 81/298/63 82/299/63 78/300/63
f 78/301/64 82/302/64 83/303/64 79/304/64
f 79/305/65 83/306/65 84/307/65 80/308/65
f 80/309/66 84/310/66 81/311/66 77/312/66
f 86/313/67 87/314/67 88/315/67 85/316/67
f 78/317/68 86/318/68 85/319/68 77/320/68
f 77/321/69 85/322/69 88/323/69 80/324/69
f 79/325/70 87/326/70 86/327/70 78/328/70
f 4/8/23 2/7/23 46/171/23 48/170/23
f 2/12/28 1/11/28 45/175/28 46/174/28
f 1/16/27 3/15/27 47/179/27 45/178/27
f 3/20/29 4/19/29 48/183/29 47/182/29
