# Blender v2.93.4 OBJ File: 'motor_tunado.blend'
# www.blender.org
mtllib OB_2.mtl
o Cube.019_Cube.020
v -0.023638 -0.055966 0.081467
v 0.018397 -0.055966 0.081467
v -0.023638 -0.033790 0.081467
v 0.018397 -0.033790 0.081467
v 0.016331 -0.035856 0.081467
v 0.016331 -0.053900 0.081467
v -0.021572 -0.053900 0.081467
v -0.021572 -0.035856 0.081467
v -0.023638 -0.055966 0.080717
v 0.018397 -0.055966 0.080717
v -0.023638 -0.033790 0.080717
v 0.018397 -0.033790 0.080717
v 0.016331 -0.035856 0.080717
v 0.016331 -0.053900 0.080717
v -0.021572 -0.053900 0.080717
v -0.021572 -0.035856 0.080717
vt 0.488355 0.762287
vt 0.386645 0.762287
vt 0.375000 0.750000
vt 0.500000 0.750000
vt 0.386645 0.987713
vt 0.375000 1.000000
vt 0.488355 0.987713
vt 0.500000 1.000000
vt 0.488355 0.762287
vt 0.500000 0.750000
vt 0.375000 0.750000
vt 0.386645 0.762287
vt 0.375000 1.000000
vt 0.386645 0.987713
vt 0.500000 1.000000
vt 0.488355 0.987713
vn 0.0000 0.0000 1.0000
vn -0.0000 0.0000 -1.0000
vn -1.0000 0.0000 0.0000
vn 0.0000 1.0000 0.0000
vn 1.0000 0.0000 0.0000
vn 0.0000 -1.0000 0.0000
usemtl moldura
s off
f 5/1/1 6/2/1 2/3/1 4/4/1
f 6/2/1 7/5/1 1/6/1 2/3/1
f 7/5/1 8/7/1 3/8/1 1/6/1
f 8/7/1 5/1/1 4/4/1 3/8/1
f 13/9/2 12/10/2 10/11/2 14/12/2
f 14/12/2 10/11/2 9/13/2 15/14/2
f 15/14/2 9/13/2 11/15/2 16/16/2
f 16/16/2 11/15/2 12/10/2 13/9/2
f 6/2/3 5/1/3 13/9/3 14/12/3
f 7/5/4 6/2/4 14/12/4 15/14/4
f 8/7/5 7/5/5 15/14/5 16/16/5
f 5/1/6 8/7/6 16/16/6 13/9/6
f 4/4/5 2/3/5 10/11/5 12/10/5
f 2/3/6 1/6/6 9/13/6 10/11/6
f 1/6/3 3/8/3 11/15/3 9/13/3
f 3/8/4 4/4/4 12/10/4 11/15/4
