# Blender v2.93.4 OBJ File: 'motor_tunado.blend'
# www.blender.org
mtllib OB_3.mtl
o Cube.017_Cube.018
v -0.023638 -0.055966 0.080718
v -0.022730 -0.054628 0.058624
v 0.018397 -0.055966 0.080718
v 0.017489 -0.054628 0.058624
v -0.023638 -0.033790 0.080718
v -0.023638 -0.033790 0.058624
v 0.018397 -0.033790 0.058624
v 0.018397 -0.033790 0.080718
v -0.023638 -0.055966 0.054127
v -0.022730 -0.035128 0.058624
v 0.018397 -0.055966 0.054127
v -0.022730 -0.035128 0.067169
v 0.017489 -0.035128 0.058624
v 0.017489 -0.035128 0.067169
v -0.022730 -0.054628 0.067169
v 0.017489 -0.054628 0.067169
v -0.023638 -0.044878 0.057062
v 0.018397 -0.044878 0.057062
v 0.018397 -0.044878 0.080718
v -0.023638 -0.044878 0.080718
v -0.022730 -0.044878 0.057062
v 0.017489 -0.044878 0.057062
v -0.022730 -0.044878 0.067169
v 0.017489 -0.044878 0.067169
v -0.023638 -0.050422 0.055844
v 0.018397 -0.050422 0.055844
v 0.018397 -0.050422 0.080718
v -0.022730 -0.049753 0.058624
v 0.017489 -0.049753 0.058624
v -0.022730 -0.049753 0.067169
v 0.017489 -0.049753 0.067169
v -0.023638 -0.050422 0.080718
v -0.023638 -0.053194 0.055059
v 0.018397 -0.053194 0.055059
v 0.018397 -0.053194 0.080718
v -0.022730 -0.052191 0.058624
v 0.017489 -0.052191 0.058624
v -0.022730 -0.052191 0.067169
v 0.017489 -0.052191 0.067169
v -0.023638 -0.053194 0.080718
v -0.023638 -0.047650 0.080718
v -0.023638 -0.047650 0.056373
v 0.018397 -0.047650 0.056373
v 0.018397 -0.047650 0.080718
v -0.022730 -0.047315 0.058307
v 0.017489 -0.047315 0.058307
v -0.022730 -0.047315 0.067169
v 0.017489 -0.047315 0.067169
v -0.023108 -0.055436 0.080718
v -0.023253 -0.055146 0.058768
v 0.017867 -0.055436 0.080718
v 0.018012 -0.055146 0.058768
v -0.022888 -0.033790 0.080718
v -0.023097 -0.033819 0.059142
v 0.017856 -0.033819 0.059142
v 0.017647 -0.033790 0.080718
v -0.023322 -0.055749 0.054771
v -0.023019 -0.034955 0.059294
v 0.018081 -0.055749 0.054771
v -0.023163 -0.034695 0.067602
v 0.017778 -0.034955 0.059294
v 0.017922 -0.034695 0.067602
v -0.023163 -0.055061 0.067602
v 0.017922 -0.055061 0.067602
v -0.023193 -0.044905 0.057665
v 0.017952 -0.044905 0.057665
v 0.017647 -0.044878 0.080718
v -0.022888 -0.044878 0.080718
v -0.023350 -0.044897 0.057483
v 0.018109 -0.044897 0.057483
v -0.023260 -0.044878 0.067699
v 0.018020 -0.044878 0.067699
v -0.023513 -0.050499 0.056580
v 0.018272 -0.050499 0.056580
v 0.017647 -0.050422 0.080718
v -0.023470 -0.049763 0.058744
v 0.018229 -0.049763 0.058744
v -0.023260 -0.049753 0.067699
v 0.018020 -0.049753 0.067699
v -0.022888 -0.050422 0.080718
v -0.023540 -0.053318 0.055792
v 0.018299 -0.053318 0.055792
v 0.017647 -0.053194 0.080718
v -0.023473 -0.052207 0.058723
v 0.018232 -0.052207 0.058723
v -0.023260 -0.052191 0.067699
v 0.018020 -0.052191 0.067699
v -0.022888 -0.053194 0.080718
v -0.022888 -0.047650 0.080718
v -0.023426 -0.047622 0.057091
v 0.018185 -0.047622 0.057091
v 0.017647 -0.047650 0.080718
v -0.023459 -0.047307 0.058485
v 0.018218 -0.047307 0.058485
v -0.023260 -0.047315 0.067699
v 0.018020 -0.047315 0.067699
vt 0.305870 0.000390
vt 0.305870 0.483295
vt 0.000390 0.483296
vt 0.000390 0.000390
vt 0.272937 0.710403
vt 0.290882 0.583020
vt 0.544705 0.583020
vt 0.544705 0.710403
vt 0.517607 0.000390
vt 0.517607 0.462433
vt 0.419441 0.462433
vt 0.419441 0.000390
vt 0.272158 0.583020
vt 0.272158 0.710403
vt 0.018335 0.710403
vt 0.000390 0.583020
vt 0.573909 0.373983
vt 0.600777 0.381874
vt 0.600778 0.436770
vt 0.573062 0.417781
vt 0.572283 0.010821
vt 0.572283 0.472864
vt 0.518386 0.483295
vt 0.518387 0.000390
vt 0.788046 0.245941
vt 0.787828 0.132501
vt 0.798478 0.117280
vt 0.798478 0.245921
vt 0.791394 0.989179
vt 0.791394 0.527132
vt 0.806765 0.516700
vt 0.806765 0.999610
vt 0.306650 0.000390
vt 0.418662 0.000390
vt 0.418662 0.462433
vt 0.306650 0.462433
vt 0.573062 0.229292
vt 0.591007 0.117280
vt 0.689173 0.117280
vt 0.689173 0.229292
vt 0.000390 0.484075
vt 0.462433 0.484075
vt 0.462433 0.582241
vt 0.000390 0.582241
vt 0.573062 0.373204
vt 0.573062 0.345201
vt 0.671228 0.345201
vt 0.671228 0.373204
vt 0.573062 0.018335
vt 0.685074 0.000390
vt 0.685074 0.116501
vt 0.573062 0.116501
vt 0.559788 0.611023
vt 0.545484 0.583020
vt 0.661595 0.583020
vt 0.661595 0.611023
vt 0.000390 0.796750
vt 0.000390 0.768747
vt 0.462433 0.768748
vt 0.462433 0.796750
vt 0.629250 0.447846
vt 0.629250 0.479291
vt 0.618818 0.479291
vt 0.604478 0.449775
vt 0.672008 0.401076
vt 0.672226 0.287636
vt 0.682657 0.287656
vt 0.682657 0.416297
vt 0.758768 0.516700
vt 0.790614 0.516700
vt 0.790614 0.788468
vt 0.758768 0.796385
vt 0.463213 0.743029
vt 0.471130 0.711183
vt 0.742898 0.711183
vt 0.742898 0.743029
vt 0.463212 0.548546
vt 0.472235 0.516700
vt 0.757989 0.516700
vt 0.757989 0.548546
vt 0.722578 0.117280
vt 0.754424 0.117280
vt 0.754424 0.403034
vt 0.722578 0.412057
vt 0.658561 0.469812
vt 0.631563 0.477249
vt 0.630051 0.442822
vt 0.658561 0.426006
vt 0.000390 0.767968
vt 0.000390 0.739965
vt 0.462433 0.739965
vt 0.462433 0.767968
vt 0.573062 0.315639
vt 0.573062 0.287636
vt 0.671228 0.287636
vt 0.671228 0.315639
vt 0.573062 0.258074
vt 0.576703 0.230071
vt 0.674869 0.230071
vt 0.674869 0.258074
vt 0.678707 0.676034
vt 0.650489 0.674960
vt 0.648071 0.640585
vt 0.678707 0.651188
vt 0.573062 0.286857
vt 0.573062 0.258854
vt 0.671228 0.258854
vt 0.671228 0.286857
vt 0.000390 0.739186
vt 0.000390 0.711183
vt 0.462433 0.711183
vt 0.462433 0.739186
vt 0.629272 0.428880
vt 0.602404 0.436770
vt 0.601557 0.392972
vt 0.629272 0.373983
vt 0.768693 0.484075
vt 0.768693 0.515921
vt 0.473916 0.515921
vt 0.463212 0.484075
vt 0.721798 0.422761
vt 0.689953 0.412057
vt 0.689953 0.117280
vt 0.721798 0.117280
vt 0.573062 0.344421
vt 0.573062 0.316418
vt 0.671228 0.316418
vt 0.671228 0.344421
vt 0.631563 0.373983
vt 0.658561 0.381420
vt 0.658561 0.425226
vt 0.630051 0.408410
vt 0.659340 0.428447
vt 0.690690 0.426006
vt 0.690690 0.450853
vt 0.660150 0.438847
vt 0.545484 0.639806
vt 0.559788 0.611803
vt 0.661595 0.611803
vt 0.661595 0.639806
vt 0.463212 0.582241
vt 0.469281 0.550395
vt 0.748967 0.550395
vt 0.748967 0.582241
vt 0.755203 0.117280
vt 0.787049 0.117280
vt 0.787049 0.396965
vt 0.755203 0.403034
vt 0.575480 0.448920
vt 0.603698 0.447846
vt 0.603698 0.472693
vt 0.573062 0.483295
vt 0.000390 0.825533
vt 0.000390 0.797530
vt 0.462433 0.797530
vt 0.462433 0.825533
vt 0.549126 0.668588
vt 0.545484 0.640585
vt 0.647292 0.640585
vt 0.647292 0.668588
vt 0.305870 0.000390
vt 0.000390 0.000390
vt 0.000390 0.483296
vt 0.305870 0.483295
vt 0.272937 0.710403
vt 0.544705 0.710403
vt 0.544705 0.583020
vt 0.290882 0.583020
vt 0.517607 0.000390
vt 0.419441 0.000390
vt 0.419441 0.462433
vt 0.517607 0.462433
vt 0.272158 0.583020
vt 0.000390 0.583020
vt 0.018335 0.710403
vt 0.272158 0.710403
vt 0.573909 0.373983
vt 0.573062 0.417781
vt 0.600778 0.436770
vt 0.600777 0.381874
vt 0.572283 0.010821
vt 0.518387 0.000390
vt 0.518386 0.483295
vt 0.572283 0.472864
vt 0.788046 0.245941
vt 0.798478 0.245921
vt 0.798478 0.117280
vt 0.787828 0.132501
vt 0.791394 0.989179
vt 0.806765 0.999610
vt 0.806765 0.516700
vt 0.791394 0.527132
vt 0.306650 0.000390
vt 0.306650 0.462433
vt 0.418662 0.462433
vt 0.418662 0.000390
vt 0.573062 0.229292
vt 0.689173 0.229292
vt 0.689173 0.117280
vt 0.591007 0.117280
vt 0.000390 0.484075
vt 0.000390 0.582241
vt 0.462433 0.582241
vt 0.462433 0.484075
vt 0.573062 0.373204
vt 0.671228 0.373204
vt 0.671228 0.345201
vt 0.573062 0.345201
vt 0.573062 0.018335
vt 0.573062 0.116501
vt 0.685074 0.116501
vt 0.685074 0.000390
vt 0.559788 0.611023
vt 0.661595 0.611023
vt 0.661595 0.583020
vt 0.545484 0.583020
vt 0.000390 0.796750
vt 0.462433 0.796750
vt 0.462433 0.768748
vt 0.000390 0.768747
vt 0.629250 0.447846
vt 0.604478 0.449775
vt 0.618818 0.479291
vt 0.629250 0.479291
vt 0.672008 0.401076
vt 0.682657 0.416297
vt 0.682657 0.287656
vt 0.672226 0.287636
vt 0.758768 0.516700
vt 0.758768 0.796385
vt 0.790614 0.788468
vt 0.790614 0.516700
vt 0.463213 0.743029
vt 0.742898 0.743029
vt 0.742898 0.711183
vt 0.471130 0.711183
vt 0.463212 0.548546
vt 0.757989 0.548546
vt 0.757989 0.516700
vt 0.472235 0.516700
vt 0.722578 0.117280
vt 0.722578 0.412057
vt 0.754424 0.403034
vt 0.754424 0.117280
vt 0.658561 0.469812
vt 0.658561 0.426006
vt 0.630051 0.442822
vt 0.631563 0.477249
vt 0.000390 0.767968
vt 0.462433 0.767968
vt 0.462433 0.739965
vt 0.000390 0.739965
vt 0.573062 0.315639
vt 0.671228 0.315639
vt 0.671228 0.287636
vt 0.573062 0.287636
vt 0.573062 0.258074
vt 0.674869 0.258074
vt 0.674869 0.230071
vt 0.576703 0.230071
vt 0.678707 0.676034
vt 0.678707 0.651188
vt 0.648071 0.640585
vt 0.650489 0.674960
vt 0.573062 0.286857
vt 0.671228 0.286857
vt 0.671228 0.258854
vt 0.573062 0.258854
vt 0.000390 0.739186
vt 0.462433 0.739186
vt 0.462433 0.711183
vt 0.000390 0.711183
vt 0.629272 0.428880
vt 0.629272 0.373983
vt 0.601557 0.392972
vt 0.602404 0.436770
vt 0.768693 0.484075
vt 0.463212 0.484075
vt 0.473916 0.515921
vt 0.768693 0.515921
vt 0.721798 0.422761
vt 0.721798 0.117280
vt 0.689953 0.117280
vt 0.689953 0.412057
vt 0.573062 0.344421
vt 0.671228 0.344421
vt 0.671228 0.316418
vt 0.573062 0.316418
vt 0.631563 0.373983
vt 0.630051 0.408410
vt 0.658561 0.425226
vt 0.658561 0.381420
vt 0.659340 0.428447
vt 0.660150 0.438847
vt 0.690690 0.450853
vt 0.690690 0.426006
vt 0.545484 0.639806
vt 0.661595 0.639806
vt 0.661595 0.611803
vt 0.559788 0.611803
vt 0.463212 0.582241
vt 0.748967 0.582241
vt 0.748967 0.550395
vt 0.469281 0.550395
vt 0.755203 0.117280
vt 0.755203 0.403034
vt 0.787049 0.396965
vt 0.787049 0.117280
vt 0.575480 0.448920
vt 0.573062 0.483295
vt 0.603698 0.472693
vt 0.603698 0.447846
vt 0.000390 0.825533
vt 0.462433 0.825533
vt 0.462433 0.797530
vt 0.000390 0.797530
vt 0.549126 0.668588
vt 0.647292 0.668588
vt 0.647292 0.640585
vt 0.545484 0.640585
vn 0.0000 -1.0000 0.0000
vn 1.0000 0.0000 0.0000
vn -1.0000 -0.0000 0.0000
vn 0.9721 0.0413 -0.2310
vn 0.0000 0.9585 -0.2852
vn -0.1086 0.1474 -0.9831
vn 0.0000 0.0000 -1.0000
vn 0.0000 1.0000 0.0000
vn -0.7333 -0.0721 -0.6760
vn 0.1086 0.1474 -0.9831
vn -0.9574 0.0430 -0.2854
vn 0.9320 0.0147 -0.3622
vn -0.9721 0.0413 -0.2310
vn 0.9574 0.0430 -0.2854
vn 0.7333 -0.0721 -0.6760
vn -0.9320 0.0147 -0.3622
vn 0.0000 0.9999 -0.0121
vn -0.9999 -0.0036 -0.0115
vn 0.0000 0.9995 -0.0313
vn 0.9999 -0.0036 -0.0115
vn -0.9952 -0.0887 0.0413
vn 0.0000 -0.9888 0.1492
vn 0.9316 0.0746 -0.3558
vn 0.0000 0.1326 0.9912
vn 0.0000 0.0096 1.0000
vn -0.9998 0.0216 -0.0033
vn 0.0000 -1.0000 0.0096
vn 0.9984 -0.0547 0.0173
vn 0.9998 0.0216 -0.0033
vn -0.9996 0.0254 0.0148
vn 0.0000 0.0000 1.0000
vn 0.9844 0.0515 -0.1680
vn -0.9316 0.0746 -0.3558
vn 0.9990 -0.0404 -0.0180
vn -0.9990 -0.0404 -0.0180
vn -0.9997 -0.0012 -0.0260
vn 0.9997 -0.0012 -0.0260
vn 0.9998 0.0026 0.0205
vn -0.9997 0.0005 0.0236
vn 0.9997 0.0036 0.0225
vn -0.9998 0.0187 -0.0029
vn -0.9984 -0.0547 0.0173
vn 0.0000 -0.0339 0.9994
vn 0.9952 -0.0887 0.0413
vn 0.9998 0.0035 -0.0170
vn -0.9998 0.0035 -0.0170
vn 0.9997 0.0005 0.0236
vn -0.9998 0.0026 0.0205
vn -0.9844 0.0515 -0.1680
vn 0.9996 0.0254 0.0148
vn -0.9996 -0.0132 -0.0243
vn 0.9996 -0.0132 -0.0243
vn 0.9998 0.0187 -0.0029
vn -0.9997 0.0036 0.0225
vn -0.0232 0.9997 -0.0008
vn 0.0232 0.9997 -0.0008
vn 0.0000 0.9984 0.0570
usemtl caixa
s off
f 9/1/1 11/2/1 3/3/1 1/4/1
f 18/5/2 7/6/2 8/7/2 19/8/2
f 10/9/1 13/10/1 14/11/1 12/12/1
f 20/13/3 5/14/3 6/15/3 17/16/3
f 36/17/4 2/18/4 9/19/4 33/20/4
f 2/21/5 4/22/5 11/23/5 9/24/5
f 22/25/6 13/26/6 7/27/6 18/28/6
f 13/29/7 10/30/7 6/31/7 7/32/7
f 23/33/7 12/34/7 14/35/7 24/36/7
f 21/37/2 10/38/2 12/39/2 23/40/2
f 4/41/8 2/42/8 15/43/8 16/44/8
f 37/45/3 4/46/3 16/47/3 39/48/3
f 13/49/3 22/50/3 24/51/3 14/52/3
f 45/53/2 21/54/2 23/55/2 47/56/2
f 47/57/7 23/58/7 24/59/7 48/60/7
f 46/61/9 22/62/9 18/63/9 43/64/9
f 10/65/10 21/66/10 17/67/10 6/68/10
f 41/69/3 20/70/3 17/71/3 42/72/3
f 43/73/2 18/74/2 19/75/2 44/76/2
f 34/77/2 26/78/2 27/79/2 35/80/2
f 40/81/3 32/82/3 25/83/3 33/84/3
f 37/85/11 29/86/11 26/87/11 34/88/11
f 38/89/7 30/90/7 31/91/7 39/92/7
f 36/93/2 28/94/2 30/95/2 38/96/2
f 46/97/3 29/98/3 31/99/3 48/100/3
f 45/101/12 28/102/12 25/103/12 42/104/12
f 2/105/2 36/106/2 38/107/2 15/108/2
f 15/109/7 38/110/7 39/111/7 16/112/7
f 4/113/13 37/114/13 34/115/13 11/116/13
f 1/117/3 40/118/3 33/119/3 9/120/3
f 11/121/2 34/122/2 35/123/2 3/124/2
f 29/125/3 37/126/3 39/127/3 31/128/3
f 28/129/14 36/130/14 33/131/14 25/132/14
f 21/133/15 45/134/15 42/135/15 17/136/15
f 22/137/3 46/138/3 48/139/3 24/140/3
f 26/141/2 43/142/2 44/143/2 27/144/2
f 32/145/3 41/146/3 42/147/3 25/148/3
f 29/149/16 46/150/16 43/151/16 26/152/16
f 30/153/7 47/154/7 48/155/7 31/156/7
f 28/157/2 45/158/2 47/159/2 30/160/2
f 57/161/17 49/162/17 51/163/17 59/164/17
f 66/165/18 67/166/18 56/167/18 55/168/18
f 58/169/19 60/170/19 62/171/19 61/172/19
f 68/173/20 65/174/20 54/175/20 53/176/20
f 84/177/21 81/178/21 57/179/21 50/180/21
f 50/181/22 57/182/22 59/183/22 52/184/22
f 70/185/23 66/186/23 55/187/23 61/188/23
f 61/189/24 55/190/24 54/191/24 58/192/24
f 71/193/25 72/194/25 62/195/25 60/196/25
f 69/197/26 71/198/26 60/199/26 58/200/26
f 52/201/27 64/202/27 63/203/27 50/204/27
f 85/205/28 87/206/28 64/207/28 52/208/28
f 61/209/29 62/210/29 72/211/29 70/212/29
f 93/213/30 95/214/30 71/215/30 69/216/30
f 95/217/31 96/218/31 72/219/31 71/220/31
f 94/221/32 91/222/32 66/223/32 70/224/32
f 58/225/33 54/226/33 65/227/33 69/228/33
f 89/229/34 90/230/34 65/231/34 68/232/34
f 91/233/35 92/234/35 67/235/35 66/236/35
f 82/237/36 83/238/36 75/239/36 74/240/36
f 88/241/37 81/242/37 73/243/37 80/244/37
f 85/245/38 82/246/38 74/247/38 77/248/38
f 86/249/31 87/250/31 79/251/31 78/252/31
f 84/253/39 86/254/39 78/255/39 76/256/39
f 94/257/40 96/258/40 79/259/40 77/260/40
f 93/261/41 90/262/41 73/263/41 76/264/41
f 50/265/42 63/266/42 86/267/42 84/268/42
f 63/269/43 64/270/43 87/271/43 86/272/43
f 52/273/44 59/274/44 82/275/44 85/276/44
f 49/277/45 57/278/45 81/279/45 88/280/45
f 59/281/46 51/282/46 83/283/46 82/284/46
f 77/285/47 79/286/47 87/287/47 85/288/47
f 76/289/48 73/290/48 81/291/48 84/292/48
f 69/293/49 65/294/49 90/295/49 93/296/49
f 70/297/50 72/298/50 96/299/50 94/300/50
f 74/301/51 75/302/51 92/303/51 91/304/51
f 80/305/52 73/306/52 90/307/52 89/308/52
f 77/309/53 74/310/53 91/311/53 94/312/53
f 78/313/31 79/314/31 96/315/31 95/316/31
f 76/317/54 78/318/54 95/319/54 93/320/54
f 3/124/31 35/123/31 83/283/31 51/282/31
f 1/4/31 3/3/31 51/163/31 49/162/31
f 5/14/31 20/13/31 68/173/31 53/176/31
f 8/7/55 7/6/55 55/168/55 56/167/55
f 6/15/56 5/14/56 53/176/56 54/175/56
f 7/32/57 6/31/57 54/191/57 55/190/57
f 19/8/31 8/7/31 56/167/31 67/166/31
f 20/70/31 41/69/31 89/229/31 68/232/31
f 27/144/31 44/143/31 92/303/31 75/302/31
f 32/82/31 40/81/31 88/241/31 80/244/31
f 35/80/31 27/79/31 75/239/31 83/238/31
f 40/118/31 1/117/31 49/277/31 88/280/31
f 41/146/31 32/145/31 80/305/31 89/308/31
f 44/76/31 19/75/31 67/235/31 92/234/31
